<svg xmlns="http://www.w3.org/2000/svg"
     style="background-color: #f0f8ff"
     width="582.0"
     height="430.875">
   <defs>
      <linearGradient y2="100%" id="elementGradient" x1="0%" x2="0%" y1="0%">
         <stop stop-color="#ffffff" offset="0%"/>
         <stop stop-color="#f0f8ff" offset="100%"/>
      </linearGradient>
      <linearGradient y2="100%" id="attributeGradient" x1="0%" x2="0%" y1="0%">
         <stop stop-color="#ffffff" offset="0%"/>
         <stop stop-color="#f9f5e7" offset="100%"/>
      </linearGradient>
      <linearGradient y2="100%" id="sequenceGradient" x1="0%" x2="0%" y1="0%">
         <stop stop-color="#ffffff" offset="0%"/>
         <stop stop-color="#e9ecef" offset="100%"/>
      </linearGradient>
      <linearGradient y2="100%" id="choiceGradient" x1="0%" x2="0%" y1="0%">
         <stop stop-color="#ffffff" offset="0%"/>
         <stop stop-color="#fff3cd" offset="100%"/>
      </linearGradient>
      <linearGradient y2="100%" id="anyGradient" x1="0%" x2="0%" y1="0%">
         <stop stop-color="#ffffff" offset="0%"/>
         <stop stop-color="#dee2e6" offset="100%"/>
      </linearGradient>
      <linearGradient y2="100%" id="structuralGradient" x1="0%" x2="0%" y1="0%">
         <stop stop-color="#ffffff" offset="0%"/>
         <stop stop-color="#e9ecef" offset="100%"/>
      </linearGradient>
      <style>.hoverable-rect { transition: all 0.3s ease; cursor: pointer; } .hoverable-rect:hover { transform: translateY(-1px); filter: drop-shadow(0 3px 6px rgba(0, 0, 0, 0.2)); } .connection-line { transition: stroke-width 0.2s ease; } .connection-line:hover { stroke-width: 2.5; } .cardinality-text { font-weight: 600; font-size: 10px; } .element-icon { fill: #4a90e2; } .attribute-icon { fill: #d4a147; }</style>
      <filter width="200%"
              x="-50%"
              height="200%"
              id="dropShadow"
              y="-50%">
         <feGaussianBlur stdDeviation="2" in="SourceAlpha"/>
         <feOffset result="offsetblur" dx="1" dy="1"/>
         <feFlood flood-color="black" flood-opacity="0.2"/>
         <feComposite in2="offsetblur" operator="in"/>
         <feMerge>
            <feMergeNode/>
            <feMergeNode in="SourceGraphic"/>
         </feMerge>
      </filter>
      <g style="stroke: #4a90e2; stroke-width: 2; stroke-linecap: round;"
         id="modern-plus-icon">
         <circle fill="#f0f8ff"
                 stroke-width="1.5"
                 r="10"
                 cx="12"
                 cy="12"
                 stroke="#4a90e2"/>
         <line y2="17" x1="12" x2="12" y1="7"/>
         <line y2="12" x1="7" x2="17" y1="12"/>
      </g>
      <g id="string-icon">
         <path fill="#28a745"
               d="M2.5 4v1.5c0 .83.67 1.5 1.5 1.5h1v1h-1c-.83 0-1.5.67-1.5 1.5V11c0 .55-.45 1-1 1H0v-1h.5c.28 0 .5-.22.5-.5V9s0-2.5 0-2.5c0-.83.67-1.5 1.5-1.5h1v-1h-1C1.67 4 1 3.33 1 2.5V1c0-.55.45-1 1-1H1v1h-.5c-.28 0-.5.22-.5.5V3s0 2.5 0 2.5c0 .83-.67 1.5-1.5 1.5h-1z"/>
      </g>
      <g id="numeric-icon">
         <path fill="#007bff"
               d="M1.5 6l.5 2H1l-.5-2H0V5h.5L0 3h1l.5 2h1L2 3h1l.5 2H4v1h-.5L4 8H3l-.5-2h-1z"/>
      </g>
      <g id="date-icon">
         <path fill="#fd7e14"
               d="M3.5 0c-.28 0-.5.22-.5.5v.5h-1v-.5c0-.28-.22-.5-.5-.5s-.5.22-.5.5v.5H0v8h8V1h-1v-.5c0-.28-.22-.5-.5-.5s-.5.22-.5.5v.5h-2v-.5c0-.28-.22-.5-.5-.5zM1 2h6v2H1V2zm0 3h6v3H1V5z"/>
      </g>
      <g id="boolean-icon">
         <path fill="#6f42c1" d="M7 1L3.5 4.5 1 2l-1 1 3.5 3.5L8 2z"/>
      </g>
      <g id="binary-icon">
         <path fill="#6c757d"
               d="M1 1v6h6V3L5 1H1zm4 0v2h2L5 1zm-3 3h2v1H2V4zm0 2h4v1H2V6z"/>
      </g>
      <g id="uri-icon">
         <path fill="#17a2b8"
               d="M2 3h1v1H2V3zm3 0h1v1H5V3zM1.5 1C.67 1 0 1.67 0 2.5S.67 4 1.5 4h.25L2 3.75v-.5l-.25-.25H1.5c-.28 0-.5-.22-.5-.5s.22-.5.5-.5h1c.28 0 .5.22.5.5v.25l.25.25h.5l.25-.25V2.5c0-.83-.67-1.5-1.5-1.5h-1z"/>
      </g>
      <g id="qname-icon">
         <path fill="#e83e8c"
               d="M0 2v4c0 .55.45 1 1 1h2.5L7 3.5v-1L3.5 0H1C.45 0 0 .45 0 2zm5.5 1.5L3 5H1V2h2.5L5.5 3.5z"/>
      </g>
      <g id="language-icon">
         <path fill="#20c997"
               d="M4 0C1.79 0 0 1.79 0 4s1.79 4 4 4 4-1.79 4-4-1.79-4-4-4zm2 7c-.02-.02-.05-.03-.08-.03H5c-.28 0-.5-.22-.5-.5 0-.25.19-.46.44-.5.02 0 .04-.01.06-.01h1c.83 0 1.5-.67 1.5-1.5 0-.78-.6-1.42-1.36-1.49C6.09 2.95 6.05 2.93 6 2.93c-.28 0-.5-.22-.5-.5s.22-.5.5-.5c.05 0 .09.02.14.03C6.36 1.94 6.6 2 6.5 2c0 0 .5.22.5.5s-.22.5-.5.5c-.28 0-.5-.22-.5-.5 0-.02.01-.04.01-.06h-1c-.83 0-1.5.67-1.5 1.5 0 .78.6 1.42 1.36 1.49C4.91 5.05 4.95 5.07 5 5.07c.28 0 .5.22.5.5s-.22.5-.5.5c-.05 0-.09-.02-.14-.03C4.64 6.06 4.4 6 4.5 6z"/>
      </g>
      <g id="complex-icon" transform="scale(0.5)">
         <rect x="5"
               y="0"
               fill="none"
               width="6"
               height="4"
               stroke="#dc3545"
               stroke-width="1.5"/>
         <rect x="0"
               y="12"
               fill="none"
               width="6"
               height="4"
               stroke="#dc3545"
               stroke-width="1.5"/>
         <rect x="10"
               y="12"
               fill="none"
               width="6"
               height="4"
               stroke="#dc3545"
               stroke-width="1.5"/>
         <line y2="10"
               stroke-width="1.5"
               x1="8"
               x2="8"
               stroke="#dc3545"
               y1="4"/>
         <line y2="10"
               stroke-width="1.5"
               x1="3"
               x2="13"
               stroke="#dc3545"
               y1="10"/>
         <line y2="12"
               stroke-width="1.5"
               x1="3"
               x2="3"
               stroke="#dc3545"
               y1="10"/>
         <line y2="12"
               stroke-width="1.5"
               x1="13"
               x2="13"
               stroke="#dc3545"
               y1="10"/>
      </g>
      <g id="default-icon">
         <path fill="#4a90e2"
               d="M4 0C1.79 0 0 1.79 0 4s1.79 4 4 4 4-1.79 4-4-1.79-4-4-4zm0 6c-.55 0-1-.45-1-1s.45-1 1-1 1 .45 1 1-.45 1-1 1z"/>
      </g>
      <g id="sequence-icon">
         <path fill="#6c757d"
               d="M2,17H4V19H2V17M2,13H4V15H2V13M2,9H4V11H2V9M2,5H4V7H2V5M7,5H22V7H7V5M7,9H22V11H7V9M7,13H22V15H7V13M7,17H22V19H7V17Z"/>
      </g>
      <g id="choice-icon">
         <path fill="#ff8c00"
               d="M8,10V12H16V10H8M8,14V16H16V14H8M18,8C19.11,8 20,8.9 20,10V14C20,15.11 19.11,16 18,16H16V14H18V10H16V8H18M6,8V10H4V14H6V16H4C2.89,16 2,15.11 2,14V10C2,8.9 2.89,8 4,8H6Z"/>
      </g>
   </defs>
   <a href="#">
      <rect x="32"
            y="139"
            fill="#f0f8ff"
            width="56.0"
            style="stroke: #4a90e2; stroke-width: 2; fill: url(#elementGradient); filter: url(#dropShadow);"
            filter="url(#dropShadow)"
            class="hoverable-rect"
            rx="8"
            ry="8"
            height="39.859375"
            id="/Fund"/>
      <text x="44"
            fill="#2c5aa0"
            y="166.859375"
            font-size="14"
            font-family="'Inter', -apple-system, BlinkMacSystemFont, 'Segoe UI', 'Helvetica Neue', Arial, sans-serif">Fund</text>
   </a>
   <g id="modern-comment">
      <text font-style="italic"
            x="44"
            fill="#6c757d"
            font-size="13"
            y="196.859375"
            font-family="'Inter', -apple-system, BlinkMacSystemFont, 'Segoe UI', 'Helvetica Neue', Arial, sans-serif"/>
   </g>
   <line y2="158.9296875"
         style="stroke: #6c757d; stroke-width: 2; fill: none;"
         x1="88.0"
         class="connection-line"
         x2="123.0"
         y1="158.9296875"/>
   <g>
      <rect x="123.0"
            y="143.9296875"
            fill="url(#sequenceGradient)"
            width="50.0"
            rx="4"
            ry="4"
            height="30.0"
            stroke="#6c757d"
            stroke-width="2"/>
      <use xmlns:xlink="http://www.w3.org/1999/xlink"
           x="140.0"
           y="150.9296875"
           xlink:href="#sequence-icon"/>
   </g>
   <a href="Name_3750c6f5f8485c3fad597eee321054b2.html">
      <rect x="248.0"
            y="32.0"
            fill="#f0f8ff"
            width="212.0"
            style="stroke: #4a90e2; stroke-width: 2; fill: url(#elementGradient); filter: url(#dropShadow);"
            filter="url(#dropShadow)"
            class="hoverable-rect"
            rx="8"
            ry="8"
            height="63.71875"
            id="/Fund/SEQUENCE_1/Name"/>
      <g>
         <text x="260.0"
               fill="#2c5aa0"
               y="59.859375"
               font-size="14"
               font-weight="600"
               font-family="'Inter', -apple-system, BlinkMacSystemFont, 'Segoe UI', 'Helvetica Neue', Arial, sans-serif">Name</text>
         <line y2="63.859375"
               stroke-width="1"
               x1="260.0"
               x2="448.0"
               stroke="#e0e0e0"
               y1="63.859375"/>
         <text x="260.0"
               fill="#6c757d"
               y="83.71875"
               font-size="13"
               font-family="'Inter', -apple-system, BlinkMacSystemFont, 'Segoe UI', 'Helvetica Neue', Arial, sans-serif">xs:string</text>
         <g>
            <rect x="416.0"
                  y="71.859375"
                  fill="#e9ecef"
                  width="32.0"
                  rx="2"
                  ry="2"
                  height="16"
                  stroke="#adb5bd"
                  stroke-width="1"/>
            <text x="420.0"
                  fill="#495057"
                  y="82.859375"
                  font-size="10"
                  font-weight="500"
                  font-family="monospace">[1]</text>
         </g>
      </g>
   </a>
   <path fill="none"
         stroke-width="2"
         d="M 173.0 158.9296875 H 191.75 V 63.859375 H 248.0"
         stroke="#6c757d"/>
   <a href="FundDynamicData_bb29e5655e5370bba6c0410d72b34aa6.html">
      <rect x="248.0"
            y="127.71875"
            fill="#f0f8ff"
            width="212.0"
            style="stroke: #4a90e2; stroke-width: 2; fill: url(#elementGradient); filter: url(#dropShadow);"
            filter="url(#dropShadow)"
            class="hoverable-rect"
            rx="8"
            ry="8"
            height="63.71875"
            id="/Fund/SEQUENCE_1/FundDynamicData"/>
      <g>
         <text x="260.0"
               fill="#2c5aa0"
               y="155.578125"
               font-size="14"
               font-weight="600"
               font-family="'Inter', -apple-system, BlinkMacSystemFont, 'Segoe UI', 'Helvetica Neue', Arial, sans-serif">FundDynamicData</text>
         <line y2="159.578125"
               stroke-width="1"
               x1="260.0"
               x2="448.0"
               stroke="#e0e0e0"
               y1="159.578125"/>
         <text x="260.0"
               fill="#6c757d"
               y="179.4375"
               font-size="13"
               font-family="'Inter', -apple-system, BlinkMacSystemFont, 'Segoe UI', 'Helvetica Neue', Arial, sans-serif">xs:string</text>
         <g>
            <rect x="416.0"
                  y="167.578125"
                  fill="#e9ecef"
                  width="32.0"
                  rx="2"
                  ry="2"
                  height="16"
                  stroke="#adb5bd"
                  stroke-width="1"/>
            <text x="420.0"
                  fill="#495057"
                  y="178.578125"
                  font-size="10"
                  font-weight="500"
                  font-family="monospace">[1]</text>
         </g>
      </g>
   </a>
   <path fill="none"
         stroke-width="2"
         d="M 173.0 158.9296875 H 191.75 V 159.578125 H 248.0"
         stroke="#6c757d"/>
   <g>
      <rect x="293.0"
            y="243.4375"
            fill="url(#choiceGradient)"
            width="30.0"
            rx="4"
            stroke-dasharray="5,5"
            ry="4"
            height="30.0"
            stroke="#ff8c00"
            stroke-width="2"/>
      <use xmlns:xlink="http://www.w3.org/1999/xlink"
           x="299.0"
           y="250.4375"
           xlink:href="#choice-icon"/>
   </g>
   <path fill="none"
         stroke-width="2"
         d="M 173.0 158.9296875 H 203.0 V 258.4375 H 293.0"
         stroke="#ff8c00"/>
   <a href="SingleFund_2d9bb4835d2ccdede2366aabb891564a.html">
      <rect x="378.0"
            y="243.4375"
            fill="#f0f8ff"
            width="172.0"
            style="stroke: #4a90e2; stroke-width: 2; fill: url(#elementGradient); filter: url(#dropShadow);"
            filter="url(#dropShadow)"
            class="hoverable-rect"
            rx="8"
            ry="8"
            height="63.71875"
            id="/Fund/SEQUENCE_1/CHOICE_3/SingleFund"/>
      <g>
         <text x="390.0"
               fill="#2c5aa0"
               y="271.296875"
               font-size="14"
               font-weight="600"
               font-family="'Inter', -apple-system, BlinkMacSystemFont, 'Segoe UI', 'Helvetica Neue', Arial, sans-serif">SingleFund</text>
         <line y2="275.296875"
               stroke-width="1"
               x1="390.0"
               x2="538.0"
               stroke="#e0e0e0"
               y1="275.296875"/>
         <text x="390.0"
               fill="#6c757d"
               y="295.15625"
               font-size="13"
               font-family="'Inter', -apple-system, BlinkMacSystemFont, 'Segoe UI', 'Helvetica Neue', Arial, sans-serif">xs:string</text>
         <g>
            <rect x="506.0"
                  y="283.296875"
                  fill="#e9ecef"
                  width="32.0"
                  rx="2"
                  ry="2"
                  height="16"
                  stroke="#adb5bd"
                  stroke-width="1"/>
            <text x="510.0"
                  fill="#495057"
                  y="294.296875"
                  font-size="10"
                  font-weight="500"
                  font-family="monospace">[1]</text>
         </g>
      </g>
   </a>
   <path fill="none"
         stroke-width="2"
         d="M 338.0 258.4375 H 354.0 V 275.296875 H 378.0"
         stroke="#ff8c00"/>
   <a href="Subfunds_7296c82fb4314fb08c74f08139b519b5.html">
      <rect x="378.0"
            y="339.15625"
            fill="#f0f8ff"
            width="172.0"
            style="stroke: #4a90e2; stroke-width: 2; fill: url(#elementGradient); filter: url(#dropShadow);"
            filter="url(#dropShadow)"
            class="hoverable-rect"
            rx="8"
            ry="8"
            height="63.71875"
            id="/Fund/SEQUENCE_1/CHOICE_3/Subfunds"/>
      <g>
         <text x="390.0"
               fill="#2c5aa0"
               y="367.015625"
               font-size="14"
               font-weight="600"
               font-family="'Inter', -apple-system, BlinkMacSystemFont, 'Segoe UI', 'Helvetica Neue', Arial, sans-serif">Subfunds</text>
         <line y2="371.015625"
               stroke-width="1"
               x1="390.0"
               x2="538.0"
               stroke="#e0e0e0"
               y1="371.015625"/>
         <text x="390.0"
               fill="#6c757d"
               y="390.875"
               font-size="13"
               font-family="'Inter', -apple-system, BlinkMacSystemFont, 'Segoe UI', 'Helvetica Neue', Arial, sans-serif">xs:string</text>
         <g>
            <rect x="506.0"
                  y="379.015625"
                  fill="#e9ecef"
                  width="32.0"
                  rx="2"
                  ry="2"
                  height="16"
                  stroke="#adb5bd"
                  stroke-width="1"/>
            <text x="510.0"
                  fill="#495057"
                  y="390.015625"
                  font-size="10"
                  font-weight="500"
                  font-family="monospace">[1]</text>
         </g>
      </g>
   </a>
   <path fill="none"
         stroke-width="2"
         d="M 338.0 258.4375 H 354.0 V 371.015625 H 378.0"
         stroke="#ff8c00"/>
</svg>
