<svg xmlns="http://www.w3.org/2000/svg"
     style="background-color: #f0f8ff"
     width="559.0"
     height="439.515625">
   <defs>
      <linearGradient y2="100%" id="elementGradient" x1="0%" x2="0%" y1="0%">
         <stop stop-color="#ffffff" offset="0%"/>
         <stop stop-color="#f0f8ff" offset="100%"/>
      </linearGradient>
      <linearGradient y2="100%" id="attributeGradient" x1="0%" x2="0%" y1="0%">
         <stop stop-color="#ffffff" offset="0%"/>
         <stop stop-color="#f9f5e7" offset="100%"/>
      </linearGradient>
      <linearGradient y2="100%" id="sequenceGradient" x1="0%" x2="0%" y1="0%">
         <stop stop-color="#ffffff" offset="0%"/>
         <stop stop-color="#e9ecef" offset="100%"/>
      </linearGradient>
      <linearGradient y2="100%" id="choiceGradient" x1="0%" x2="0%" y1="0%">
         <stop stop-color="#ffffff" offset="0%"/>
         <stop stop-color="#fff3cd" offset="100%"/>
      </linearGradient>
      <linearGradient y2="100%" id="anyGradient" x1="0%" x2="0%" y1="0%">
         <stop stop-color="#ffffff" offset="0%"/>
         <stop stop-color="#dee2e6" offset="100%"/>
      </linearGradient>
      <linearGradient y2="100%" id="structuralGradient" x1="0%" x2="0%" y1="0%">
         <stop stop-color="#ffffff" offset="0%"/>
         <stop stop-color="#e9ecef" offset="100%"/>
      </linearGradient>
      <style>.hoverable-rect { transition: all 0.3s ease; cursor: pointer; } .hoverable-rect:hover { transform: translateY(-1px); filter: drop-shadow(0 3px 6px rgba(0, 0, 0, 0.2)); } .connection-line { transition: stroke-width 0.2s ease; } .connection-line:hover { stroke-width: 2.5; } .cardinality-text { font-weight: 600; font-size: 10px; } .element-icon { fill: #4a90e2; } .attribute-icon { fill: #d4a147; }</style>
      <filter width="200%"
              x="-50%"
              height="200%"
              id="dropShadow"
              y="-50%">
         <feGaussianBlur stdDeviation="2" in="SourceAlpha"/>
         <feOffset result="offsetblur" dx="1" dy="1"/>
         <feFlood flood-color="black" flood-opacity="0.2"/>
         <feComposite in2="offsetblur" operator="in"/>
         <feMerge>
            <feMergeNode/>
            <feMergeNode in="SourceGraphic"/>
         </feMerge>
      </filter>
      <g style="stroke: #4a90e2; stroke-width: 2; stroke-linecap: round;"
         id="modern-plus-icon">
         <circle fill="#f0f8ff"
                 stroke-width="1.5"
                 r="10"
                 cx="12"
                 cy="12"
                 stroke="#4a90e2"/>
         <line y2="17" x1="12" x2="12" y1="7"/>
         <line y2="12" x1="7" x2="17" y1="12"/>
      </g>
      <g id="string-icon">
         <path fill="#28a745"
               d="M2.5 4v1.5c0 .83.67 1.5 1.5 1.5h1v1h-1c-.83 0-1.5.67-1.5 1.5V11c0 .55-.45 1-1 1H0v-1h.5c.28 0 .5-.22.5-.5V9s0-2.5 0-2.5c0-.83.67-1.5 1.5-1.5h1v-1h-1C1.67 4 1 3.33 1 2.5V1c0-.55.45-1 1-1H1v1h-.5c-.28 0-.5.22-.5.5V3s0 2.5 0 2.5c0 .83-.67 1.5-1.5 1.5h-1z"/>
      </g>
      <g id="numeric-icon">
         <path fill="#007bff"
               d="M1.5 6l.5 2H1l-.5-2H0V5h.5L0 3h1l.5 2h1L2 3h1l.5 2H4v1h-.5L4 8H3l-.5-2h-1z"/>
      </g>
      <g id="date-icon">
         <path fill="#fd7e14"
               d="M3.5 0c-.28 0-.5.22-.5.5v.5h-1v-.5c0-.28-.22-.5-.5-.5s-.5.22-.5.5v.5H0v8h8V1h-1v-.5c0-.28-.22-.5-.5-.5s-.5.22-.5.5v.5h-2v-.5c0-.28-.22-.5-.5-.5zM1 2h6v2H1V2zm0 3h6v3H1V5z"/>
      </g>
      <g id="boolean-icon">
         <path fill="#6f42c1" d="M7 1L3.5 4.5 1 2l-1 1 3.5 3.5L8 2z"/>
      </g>
      <g id="binary-icon">
         <path fill="#6c757d"
               d="M1 1v6h6V3L5 1H1zm4 0v2h2L5 1zm-3 3h2v1H2V4zm0 2h4v1H2V6z"/>
      </g>
      <g id="uri-icon">
         <path fill="#17a2b8"
               d="M2 3h1v1H2V3zm3 0h1v1H5V3zM1.5 1C.67 1 0 1.67 0 2.5S.67 4 1.5 4h.25L2 3.75v-.5l-.25-.25H1.5c-.28 0-.5-.22-.5-.5s.22-.5.5-.5h1c.28 0 .5.22.5.5v.25l.25.25h.5l.25-.25V2.5c0-.83-.67-1.5-1.5-1.5h-1z"/>
      </g>
      <g id="qname-icon">
         <path fill="#e83e8c"
               d="M0 2v4c0 .55.45 1 1 1h2.5L7 3.5v-1L3.5 0H1C.45 0 0 .45 0 2zm5.5 1.5L3 5H1V2h2.5L5.5 3.5z"/>
      </g>
      <g id="language-icon">
         <path fill="#20c997"
               d="M4 0C1.79 0 0 1.79 0 4s1.79 4 4 4 4-1.79 4-4-1.79-4-4-4zm2 7c-.02-.02-.05-.03-.08-.03H5c-.28 0-.5-.22-.5-.5 0-.25.19-.46.44-.5.02 0 .04-.01.06-.01h1c.83 0 1.5-.67 1.5-1.5 0-.78-.6-1.42-1.36-1.49C6.09 2.95 6.05 2.93 6 2.93c-.28 0-.5-.22-.5-.5s.22-.5.5-.5c.05 0 .09.02.14.03C6.36 1.94 6.6 2 6.5 2c0 0 .5.22.5.5s-.22.5-.5.5c-.28 0-.5-.22-.5-.5 0-.02.01-.04.01-.06h-1c-.83 0-1.5.67-1.5 1.5 0 .78.6 1.42 1.36 1.49C4.91 5.05 4.95 5.07 5 5.07c.28 0 .5.22.5.5s-.22.5-.5.5c-.05 0-.09-.02-.14-.03C4.64 6.06 4.4 6 4.5 6z"/>
      </g>
      <g id="complex-icon" transform="scale(0.5)">
         <rect x="5"
               y="0"
               fill="none"
               width="6"
               height="4"
               stroke="#dc3545"
               stroke-width="1.5"/>
         <rect x="0"
               y="12"
               fill="none"
               width="6"
               height="4"
               stroke="#dc3545"
               stroke-width="1.5"/>
         <rect x="10"
               y="12"
               fill="none"
               width="6"
               height="4"
               stroke="#dc3545"
               stroke-width="1.5"/>
         <line y2="10"
               stroke-width="1.5"
               x1="8"
               x2="8"
               stroke="#dc3545"
               y1="4"/>
         <line y2="10"
               stroke-width="1.5"
               x1="3"
               x2="13"
               stroke="#dc3545"
               y1="10"/>
         <line y2="12"
               stroke-width="1.5"
               x1="3"
               x2="3"
               stroke="#dc3545"
               y1="10"/>
         <line y2="12"
               stroke-width="1.5"
               x1="13"
               x2="13"
               stroke="#dc3545"
               y1="10"/>
      </g>
      <g id="default-icon">
         <path fill="#4a90e2"
               d="M4 0C1.79 0 0 1.79 0 4s1.79 4 4 4 4-1.79 4-4-1.79-4-4-4zm0 6c-.55 0-1-.45-1-1s.45-1 1-1 1 .45 1 1-.45 1-1 1z"/>
      </g>
      <g id="sequence-icon">
         <path fill="#6c757d"
               d="M2,17H4V19H2V17M2,13H4V15H2V13M2,9H4V11H2V9M2,5H4V7H2V5M7,5H22V7H7V5M7,9H22V11H7V9M7,13H22V15H7V13M7,17H22V19H7V17Z"/>
      </g>
      <g id="choice-icon">
         <path fill="#ff8c00"
               d="M8,10V12H16V10H8M8,14V16H16V14H8M18,8C19.11,8 20,8.9 20,10V14C20,15.11 19.11,16 18,16H16V14H18V10H16V8H18M6,8V10H4V14H6V16H4C2.89,16 2,15.11 2,14V10C2,8.9 2.89,8 4,8H6Z"/>
      </g>
   </defs>
   <a href="#">
      <rect x="32"
            y="142"
            fill="#f0f8ff"
            width="57.0"
            style="stroke: #4a90e2; stroke-width: 2; fill: url(#elementGradient); filter: url(#dropShadow);"
            filter="url(#dropShadow)"
            class="hoverable-rect"
            rx="8"
            ry="8"
            height="40.939453125"
            id="/Fund"/>
      <text x="44"
            fill="#2c5aa0"
            y="170.939453125"
            font-size="14"
            font-family="'Inter', -apple-system, BlinkMacSystemFont, 'Segoe UI', 'Helvetica Neue', Arial, sans-serif">Fund</text>
   </a>
   <g id="modern-comment">
      <text font-style="italic"
            x="44"
            fill="#6c757d"
            font-size="13"
            y="200.939453125"
            font-family="'Inter', -apple-system, BlinkMacSystemFont, 'Segoe UI', 'Helvetica Neue', Arial, sans-serif"/>
   </g>
   <line y2="162.4697265625"
         style="stroke: #6c757d; stroke-width: 2; fill: none;"
         x1="89.0"
         class="connection-line"
         x2="124.0"
         y1="162.4697265625"/>
   <g>
      <rect x="124.0"
            y="147.4697265625"
            fill="url(#sequenceGradient)"
            width="50.0"
            rx="4"
            ry="4"
            height="30.0"
            stroke="#6c757d"
            stroke-width="2"/>
      <use xmlns:xlink="http://www.w3.org/1999/xlink"
           x="141.0"
           y="154.4697265625"
           xlink:href="#sequence-icon"/>
   </g>
   <a href="Name_edabcf95b7d89d7e1946aba983d6c5e7.html">
      <rect x="249.0"
            y="32.0"
            fill="#f0f8ff"
            width="180.0"
            style="stroke: #4a90e2; stroke-width: 2; fill: url(#elementGradient); filter: url(#dropShadow);"
            filter="url(#dropShadow)"
            class="hoverable-rect"
            rx="8"
            ry="8"
            height="65.87890625"
            id="/Fund/Name"/>
      <g>
         <text x="261.0"
               fill="#2c5aa0"
               y="60.939453125"
               font-size="14"
               font-weight="600"
               font-family="'Inter', -apple-system, BlinkMacSystemFont, 'Segoe UI', 'Helvetica Neue', Arial, sans-serif">Name</text>
         <line y2="64.939453125"
               stroke-width="1"
               x1="261.0"
               x2="417.0"
               stroke="#e0e0e0"
               y1="64.939453125"/>
         <text x="261.0"
               fill="#6c757d"
               y="85.87890625"
               font-size="13"
               font-family="'Inter', -apple-system, BlinkMacSystemFont, 'Segoe UI', 'Helvetica Neue', Arial, sans-serif">xs:string</text>
         <g>
            <rect x="393.0"
                  y="72.939453125"
                  fill="#e9ecef"
                  width="24.0"
                  rx="2"
                  ry="2"
                  height="16"
                  stroke="#adb5bd"
                  stroke-width="1"/>
            <text x="397.0"
                  fill="#495057"
                  y="83.939453125"
                  font-size="10"
                  font-weight="500"
                  font-family="monospace">[1]</text>
         </g>
      </g>
   </a>
   <path fill="none"
         stroke-width="2"
         d="M 174.0 162.4697265625 H 192.75 V 64.939453125 H 249.0"
         stroke="#6c757d"/>
   <a href="FundDynamicData_6b5915dd2fe6af5440f0024287ede561.html">
      <rect x="249.0"
            y="129.87890625"
            fill="#f0f8ff"
            width="180.0"
            style="stroke: #4a90e2; stroke-width: 2; fill: url(#elementGradient); filter: url(#dropShadow);"
            filter="url(#dropShadow)"
            class="hoverable-rect"
            rx="8"
            ry="8"
            height="65.87890625"
            id="/Fund/FundDynamicData"/>
      <g>
         <text x="261.0"
               fill="#2c5aa0"
               y="158.818359375"
               font-size="14"
               font-weight="600"
               font-family="'Inter', -apple-system, BlinkMacSystemFont, 'Segoe UI', 'Helvetica Neue', Arial, sans-serif">FundDynamicData</text>
         <line y2="162.818359375"
               stroke-width="1"
               x1="261.0"
               x2="417.0"
               stroke="#e0e0e0"
               y1="162.818359375"/>
         <text x="261.0"
               fill="#6c757d"
               y="183.7578125"
               font-size="13"
               font-family="'Inter', -apple-system, BlinkMacSystemFont, 'Segoe UI', 'Helvetica Neue', Arial, sans-serif">xs:string</text>
         <g>
            <rect x="393.0"
                  y="170.818359375"
                  fill="#e9ecef"
                  width="24.0"
                  rx="2"
                  ry="2"
                  height="16"
                  stroke="#adb5bd"
                  stroke-width="1"/>
            <text x="397.0"
                  fill="#495057"
                  y="181.818359375"
                  font-size="10"
                  font-weight="500"
                  font-family="monospace">[1]</text>
         </g>
      </g>
   </a>
   <path fill="none"
         stroke-width="2"
         d="M 174.0 162.4697265625 H 192.75 V 162.818359375 H 249.0"
         stroke="#6c757d"/>
   <g>
      <rect x="294.0"
            y="247.7578125"
            fill="url(#choiceGradient)"
            width="30.0"
            rx="4"
            stroke-dasharray="5,5"
            ry="4"
            height="30.0"
            stroke="#ff8c00"
            stroke-width="2"/>
      <use xmlns:xlink="http://www.w3.org/1999/xlink"
           x="300.0"
           y="254.7578125"
           xlink:href="#choice-icon"/>
   </g>
   <path fill="none"
         stroke-width="2"
         d="M 174.0 162.4697265625 H 204.0 V 262.7578125 H 294.0"
         stroke="#ff8c00"/>
   <a href="SingleFund_4c66861874f7d3e0da5f3ab20b18c680.html">
      <rect x="379.0"
            y="247.7578125"
            fill="#f0f8ff"
            width="148.0"
            style="stroke: #4a90e2; stroke-width: 2; fill: url(#elementGradient); filter: url(#dropShadow);"
            filter="url(#dropShadow)"
            class="hoverable-rect"
            rx="8"
            ry="8"
            height="65.87890625"
            id="/Fund/CHOICE_3/SingleFund"/>
      <g>
         <text x="391.0"
               fill="#2c5aa0"
               y="276.697265625"
               font-size="14"
               font-weight="600"
               font-family="'Inter', -apple-system, BlinkMacSystemFont, 'Segoe UI', 'Helvetica Neue', Arial, sans-serif">SingleFund</text>
         <line y2="280.697265625"
               stroke-width="1"
               x1="391.0"
               x2="515.0"
               stroke="#e0e0e0"
               y1="280.697265625"/>
         <text x="391.0"
               fill="#6c757d"
               y="301.63671875"
               font-size="13"
               font-family="'Inter', -apple-system, BlinkMacSystemFont, 'Segoe UI', 'Helvetica Neue', Arial, sans-serif">xs:string</text>
         <g>
            <rect x="491.0"
                  y="288.697265625"
                  fill="#e9ecef"
                  width="24.0"
                  rx="2"
                  ry="2"
                  height="16"
                  stroke="#adb5bd"
                  stroke-width="1"/>
            <text x="495.0"
                  fill="#495057"
                  y="299.697265625"
                  font-size="10"
                  font-weight="500"
                  font-family="monospace">[1]</text>
         </g>
      </g>
   </a>
   <path fill="none"
         stroke-width="2"
         d="M 339.0 262.7578125 H 355.0 V 280.697265625 H 379.0"
         stroke="#ff8c00"/>
   <a href="Subfunds_21a0dbc863eb9108a66a229d02fb75c3.html">
      <rect x="379.0"
            y="345.63671875"
            fill="#f0f8ff"
            width="148.0"
            style="stroke: #4a90e2; stroke-width: 2; fill: url(#elementGradient); filter: url(#dropShadow);"
            filter="url(#dropShadow)"
            class="hoverable-rect"
            rx="8"
            ry="8"
            height="65.87890625"
            id="/Fund/CHOICE_3/Subfunds"/>
      <g>
         <text x="391.0"
               fill="#2c5aa0"
               y="374.576171875"
               font-size="14"
               font-weight="600"
               font-family="'Inter', -apple-system, BlinkMacSystemFont, 'Segoe UI', 'Helvetica Neue', Arial, sans-serif">Subfunds</text>
         <line y2="378.576171875"
               stroke-width="1"
               x1="391.0"
               x2="515.0"
               stroke="#e0e0e0"
               y1="378.576171875"/>
         <text x="391.0"
               fill="#6c757d"
               y="399.515625"
               font-size="13"
               font-family="'Inter', -apple-system, BlinkMacSystemFont, 'Segoe UI', 'Helvetica Neue', Arial, sans-serif">xs:string</text>
         <g>
            <rect x="491.0"
                  y="386.576171875"
                  fill="#e9ecef"
                  width="24.0"
                  rx="2"
                  ry="2"
                  height="16"
                  stroke="#adb5bd"
                  stroke-width="1"/>
            <text x="495.0"
                  fill="#495057"
                  y="397.576171875"
                  font-size="10"
                  font-weight="500"
                  font-family="monospace">[1]</text>
         </g>
      </g>
   </a>
   <path fill="none"
         stroke-width="2"
         d="M 339.0 262.7578125 H 355.0 V 378.576171875 H 379.0"
         stroke="#ff8c00"/>
</svg>
